<?xml version="1.0" standalone="no"?>
<!DOCTYPE svg PUBLIC "-//W3C//DTD SVG 20010904//EN"
 "http://www.w3.org/TR/2001/REC-SVG-20010904/DTD/svg10.dtd">
<svg version="1.0" xmlns="http://www.w3.org/2000/svg"
 width="230.000000pt" height="219.000000pt" viewBox="0 0 230.000000 219.000000"
 preserveAspectRatio="xMidYMid meet">

<g transform="translate(0.000000,219.000000) scale(0.100000,-0.100000)"
fill="#000000" stroke="none">
<path d="M1157 2178 c-12 -10 -17 -31 -18 -80 -1 -38 -4 -68 -7 -68 -3 0 -28
20 -56 44 -61 51 -147 106 -169 106 -22 0 -29 -43 -13 -82 26 -62 28 -145 7
-270 -21 -130 -13 -117 -161 -238 -139 -113 -166 -148 -205 -270 -19 -58 -41
-97 -84 -143 -28 -31 -304 -217 -390 -263 -29 -16 -55 -34 -58 -41 -8 -21 17
-82 47 -111 15 -15 37 -47 49 -70 25 -49 82 -90 137 -99 21 -3 52 -17 67 -30
16 -12 41 -23 56 -23 14 0 117 25 226 55 110 30 220 55 245 55 62 -1 113 -26
195 -98 59 -52 76 -62 107 -62 44 0 117 -54 184 -137 44 -54 54 -77 105 -245
l32 -106 36 13 c120 42 293 152 405 256 191 178 318 402 377 664 28 126 34
425 9 449 -8 8 -111 56 -227 106 l-213 93 -278 272 c-236 232 -354 335 -382
335 -3 0 -14 -6 -23 -12z"/>
</g>
</svg>
